<svg id="Ebene_1" data-name="Ebene 1" xmlns="http://www.w3.org/2000/svg" viewBox="0 0 746.5 865.9"><defs><style>.cls-1{fill:#2f98bb;}</style></defs><title>zationLogo</title><path class="cls-1" d="M574.5,134l88.1,53.1-46.3,26.3-39.5-19.9L246.7,385l-1.1,210L508.7,756.1,456,784.7,193.7,625.5V354.1ZM683.7,350.9,628.4,379l256,157.9-.1,212.3L565,942l-36-21-45.4,25.7,82.8,53.2L938.7,778.8l1.5-269.5Z" transform="translate(-193.7 -134)"/><path class="cls-1" d="M323.6,433.5,707.2,215.6l233,129.5v100l-55.4-33.8V376.4L705.5,275,371.9,464.8l.8,143.6-49.2-27.2V433.5ZM193.7,788.3,424.8,917.5l383.1-216V552.4l-48.5-25.8.6,143.9L425,860.8l-180.5-102V722l-50.8-30.9Z" transform="translate(-193.7 -134)"/></svg>