<?xml version="1.0" standalone="no"?>
<!DOCTYPE svg PUBLIC "-//W3C//DTD SVG 20010904//EN"
 "http://www.w3.org/TR/2001/REC-SVG-20010904/DTD/svg10.dtd">
<svg version="1.0" xmlns="http://www.w3.org/2000/svg"
 width="506.000000pt" height="506.000000pt" viewBox="0 0 506.000000 506.000000"
 preserveAspectRatio="xMidYMid meet">
<metadata>
Created by potrace 1.11, written by Peter Selinger 2001-2013
</metadata>
<g transform="translate(0.000000,506.000000) scale(0.100000,-0.100000)"
fill="#000000" stroke="none">
<path d="M2500 4356 c-29 -15 -470 -265 -515 -291 l-30 -18 0 -328 c0 -240 3
-328 11 -325 6 2 112 62 235 132 123 70 238 135 255 145 17 9 40 23 51 30 18
11 27 8 69 -17 27 -16 65 -38 85 -49 20 -11 82 -47 138 -80 57 -33 117 -68
134 -79 18 -10 60 -34 95 -53 l62 -35 1 29 c4 164 3 616 -1 623 -8 12 -549
330 -562 330 -1 0 -14 -6 -28 -14z"/>
<path d="M3493 3491 c-156 -91 -283 -167 -283 -170 0 -5 190 -118 344 -204 28
-16 56 -32 61 -37 6 -4 37 -22 70 -40 33 -18 66 -38 73 -45 11 -10 14 -77 13
-334 -1 -176 2 -321 6 -321 5 0 19 9 33 20 14 11 28 20 32 20 3 0 52 27 108
60 56 33 103 60 105 60 2 0 33 18 69 40 36 22 69 40 74 40 4 0 13 5 20 12 7 7
38 26 69 44 l56 31 0 327 c0 179 -2 328 -4 330 -4 3 -209 123 -459 268 -47 28
-89 53 -95 57 -5 4 -137 -67 -292 -158z"/>
<path d="M1260 3642 c-9 -4 -69 -39 -135 -78 -66 -39 -188 -111 -270 -160
l-151 -89 1 -322 c0 -245 3 -325 13 -335 6 -6 36 -26 66 -43 50 -28 127 -72
216 -122 19 -11 82 -48 140 -81 58 -33 112 -62 120 -64 12 -3 14 42 15 317 l0
319 105 61 c257 150 368 214 405 235 22 12 44 26 49 30 7 7 -114 84 -259 165
-22 13 -98 57 -169 99 -70 42 -129 76 -130 75 0 0 -8 -3 -16 -7z"/>
<path d="M1900 3230 c-25 -16 -51 -33 -58 -36 -8 -4 -111 -64 -230 -134 l-217
-128 -3 -330 -2 -329 277 -159 c153 -88 281 -160 285 -162 5 -2 8 143 8 321
l0 325 186 109 c313 181 369 213 383 213 10 0 538 -305 555 -320 4 -4 8 -153
8 -329 0 -177 1 -321 4 -321 2 0 79 43 172 96 92 53 181 104 198 114 144 82
194 114 195 124 0 6 1 154 2 328 l2 317 -269 158 c-148 87 -277 162 -286 167
-14 6 -77 -26 -261 -134 -134 -78 -261 -153 -282 -167 l-38 -24 -37 22 c-20
12 -50 29 -67 39 -16 9 -124 72 -239 140 -115 67 -216 124 -225 126 -9 2 -36
-10 -61 -26z"/>
<path d="M2799 1772 c-33 -4 -76 -48 -83 -84 -9 -51 11 -94 53 -115 47 -23 87
-20 126 11 39 32 46 109 13 149 -25 29 -67 45 -109 39z"/>
<path d="M305 1668 l1 -93 253 -2 c139 -1 254 -3 255 -5 2 -1 -50 -77 -115
-168 -65 -91 -155 -218 -201 -283 -46 -64 -111 -156 -145 -204 -60 -83 -63
-90 -63 -145 l0 -58 413 0 413 0 -1 93 0 92 -260 2 c-143 1 -266 2 -273 2 -9
1 -10 4 -2 14 6 6 79 109 162 227 235 333 356 504 365 515 5 6 8 30 8 55 l0
45 -405 3 -406 2 1 -92z"/>
<path d="M2339 1656 c-2 -3 -31 -6 -63 -8 -32 -2 -61 -7 -64 -13 -3 -5 -5 -49
-4 -97 l1 -88 -72 0 -72 0 2 -67 c1 -38 2 -74 2 -80 1 -9 22 -13 70 -13 l69 0
0 -187 c0 -265 19 -319 132 -382 40 -22 168 -26 232 -7 l56 16 -26 79 c-25 77
-26 79 -51 69 -62 -23 -129 -7 -149 38 -6 11 -11 101 -12 198 l-1 176 43 1
c24 1 69 1 100 0 66 -1 66 0 67 97 l0 62 -105 0 c-94 0 -105 2 -103 18 1 9 1
56 0 105 -1 84 -2 87 -24 87 -13 0 -26 -2 -28 -4z"/>
<path d="M1457 1450 c-71 -22 -100 -41 -154 -97 -67 -70 -88 -135 -87 -273 0
-95 4 -125 22 -171 32 -80 90 -142 170 -181 62 -31 74 -33 167 -33 89 0 105 3
151 27 28 15 63 41 78 58 l26 32 1 -26 c4 -78 -5 -71 92 -74 l87 -3 0 371 0
370 -90 0 -90 0 0 -44 0 -45 -36 34 c-76 72 -215 94 -337 55z m299 -201 c83
-78 88 -244 11 -328 -75 -81 -240 -81 -315 1 -50 55 -72 176 -44 249 40 102
168 157 276 118 27 -10 59 -28 72 -40z"/>
<path d="M3389 1466 c-2 -2 -19 -6 -37 -9 -98 -16 -201 -101 -251 -207 -35
-75 -40 -230 -11 -315 52 -152 189 -245 359 -245 237 0 396 170 385 411 -7
160 -108 299 -249 345 -45 15 -187 29 -196 20z m129 -181 c84 -36 127 -106
126 -210 -1 -104 -37 -166 -117 -200 -131 -54 -267 38 -273 186 -3 78 18 137
64 181 60 57 129 72 200 43z"/>
<path d="M2730 1085 l0 -375 93 0 92 0 0 373 0 372 -93 3 -92 3 0 -376z"/>
<path d="M3959 1458 c-1 -4 -1 -720 0 -735 1 -10 26 -13 91 -13 l90 0 0 203
c0 111 5 219 11 240 45 162 270 187 337 37 13 -28 16 -80 18 -255 l1 -220 93
-3 92 -3 -4 253 -3 253 -33 67 c-38 77 -102 139 -165 161 -103 34 -222 14
-306 -52 -21 -17 -41 -31 -43 -31 -2 0 -5 12 -6 28 -6 70 -2 67 -90 70 -45 2
-82 2 -83 0z"/>
</g>
</svg>
